<svg xmlns="http://www.w3.org/2000/svg" width="32" height="32" viewBox="0 0 24 24" fill="none" stroke="#6366f1" stroke-width="2" stroke-linecap="round" stroke-linejoin="round">
  <path d="M12 5a3 3 0 1 0-5.997.125 4 4 0 0 0-2.526 5.77 4 4 0 0 0 .52 8.105H12"/>
  <path d="M9 13a4.5 4.5 0 0 0 3-4"/>
  <path d="M6.003 5.125A3 3 0 1 1 12.001 5"/>
  <path d="M14 13a2 2 0 1 0 0-4"/>
  <path d="M16 16a2 2 0 1 0 0-4"/>
  <path d="M20 10a2 2 0 1 0 0-4"/>
  <path d="M22 13a2 2 0 1 0 0-4"/>
  <path d="M18 19a2 2 0 1 0 0-4"/>
  <path d="M12 13h1"/>
  <path d="M12 18h6"/>
  <path d="M12 8h8"/>
  <path d="M16 8V5a2 2 0 0 1 2-2"/>
</svg>
